<svg width="24" height="25" viewBox="0 0 24 25" fill="none" xmlns="http://www.w3.org/2000/svg">
<g clip-path="url(#clip0_602_9033)">
<path d="M21.9999 17.42V20.42C22.0011 20.6985 21.944 20.9742 21.8324 21.2293C21.7209 21.4845 21.5572 21.7136 21.352 21.9019C21.1468 22.0901 20.9045 22.2335 20.6407 22.3227C20.3769 22.4119 20.0973 22.4451 19.8199 22.42C16.7428 22.0856 13.7869 21.0341 11.1899 19.35C8.77376 17.8147 6.72527 15.7662 5.18993 13.35C3.49991 10.7412 2.44818 7.77099 2.11993 4.68C2.09494 4.40347 2.12781 4.12476 2.21643 3.86162C2.30506 3.59849 2.4475 3.35669 2.6347 3.15162C2.82189 2.94655 3.04974 2.78271 3.30372 2.67052C3.55771 2.55833 3.83227 2.50026 4.10993 2.5H7.10993C7.59524 2.49522 8.06572 2.66708 8.43369 2.98353C8.80166 3.29999 9.04201 3.73945 9.10993 4.22C9.23656 5.18007 9.47138 6.12273 9.80993 7.03C9.94448 7.38792 9.9736 7.77691 9.89384 8.15088C9.81408 8.52485 9.6288 8.86811 9.35993 9.14L8.08993 10.41C9.51349 12.9135 11.5864 14.9864 14.0899 16.41L15.3599 15.14C15.6318 14.8711 15.9751 14.6858 16.3491 14.6061C16.723 14.5263 17.112 14.5555 17.4699 14.69C18.3772 15.0286 19.3199 15.2634 20.2799 15.39C20.7657 15.4585 21.2093 15.7032 21.5265 16.0775C21.8436 16.4518 22.0121 16.9296 21.9999 17.42Z" fill="#1382AB"/>
<path d="M15.0499 5.5C16.0267 5.69057 16.9243 6.16826 17.628 6.87194C18.3317 7.57561 18.8094 8.47326 18.9999 9.45M15.0499 1.5C17.0792 1.72544 18.9715 2.63417 20.4162 4.07701C21.8608 5.51984 22.7719 7.41101 22.9999 9.44M21.9999 17.42V20.42C22.0011 20.6985 21.944 20.9742 21.8324 21.2293C21.7209 21.4845 21.5572 21.7136 21.352 21.9019C21.1468 22.0901 20.9045 22.2335 20.6407 22.3227C20.3769 22.4119 20.0973 22.4451 19.8199 22.42C16.7428 22.0856 13.7869 21.0341 11.1899 19.35C8.77376 17.8147 6.72527 15.7662 5.18993 13.35C3.49991 10.7412 2.44818 7.77099 2.11993 4.68C2.09494 4.40347 2.12781 4.12476 2.21643 3.86162C2.30506 3.59849 2.4475 3.35669 2.6347 3.15162C2.82189 2.94655 3.04974 2.78271 3.30372 2.67052C3.55771 2.55833 3.83227 2.50026 4.10993 2.5H7.10993C7.59524 2.49522 8.06572 2.66708 8.43369 2.98353C8.80166 3.29999 9.04201 3.73945 9.10993 4.22C9.23656 5.18007 9.47138 6.12273 9.80993 7.03C9.94448 7.38792 9.9736 7.77691 9.89384 8.15088C9.81408 8.52485 9.6288 8.86811 9.35993 9.14L8.08993 10.41C9.51349 12.9135 11.5864 14.9864 14.0899 16.41L15.3599 15.14C15.6318 14.8711 15.9751 14.6858 16.3491 14.6061C16.723 14.5263 17.112 14.5555 17.4699 14.69C18.3772 15.0286 19.3199 15.2634 20.2799 15.39C20.7657 15.4585 21.2093 15.7032 21.5265 16.0775C21.8436 16.4518 22.0121 16.9296 21.9999 17.42Z" stroke="#1382AB" stroke-width="2" stroke-linecap="round" stroke-linejoin="round"/>
</g>
<defs>
<clipPath id="clip0_602_9033">
<rect width="24" height="24" fill="white" transform="translate(0 0.5)"/>
</clipPath>
</defs>
</svg>
