<svg width="48" height="49" viewBox="0 0 48 49" fill="none" xmlns="http://www.w3.org/2000/svg">
<g clip-path="url(#clip0_871_6294)">
<path d="M11.8873 38.9752V36.9842C11.8873 36.2226 11.431 35.7239 10.6475 35.7239C10.2558 35.7239 9.82987 35.8553 9.53704 36.2883C9.30885 35.9249 8.98179 35.7239 8.4912 35.7239C8.16414 35.7239 7.83708 35.8244 7.57847 36.1878V35.7896H6.89392V38.9752H7.57847V37.2162C7.57847 36.6517 7.8713 36.385 8.32767 36.385C8.78403 36.385 9.01222 36.6826 9.01222 37.2162V38.9752H9.69676V37.2162C9.69676 36.6517 10.0238 36.385 10.446 36.385C10.9023 36.385 11.1305 36.6826 11.1305 37.2162V38.9752H11.8873ZM22.0414 35.7896H20.931V34.827H20.2464V35.7896H19.6265V36.4198H20.2464V37.8811C20.2464 38.6118 20.5392 39.0409 21.3227 39.0409C21.6155 39.0409 21.9426 38.9404 22.1707 38.8089L21.973 38.2097C21.7752 38.3412 21.547 38.3759 21.3835 38.3759C21.0565 38.3759 20.9271 38.1749 20.9271 37.8463V36.4198H22.0376V35.7896H22.0414ZM27.8525 35.72C27.4608 35.72 27.1984 35.921 27.0348 36.1839V35.7857H26.3503V38.9713H27.0348V37.1775C27.0348 36.6479 27.263 36.3463 27.689 36.3463C27.8183 36.3463 27.9818 36.3811 28.1149 36.412L28.3127 35.7471C28.1757 35.72 27.9818 35.72 27.8525 35.72ZM19.0713 36.0525C18.7442 35.8205 18.2878 35.72 17.7972 35.72C17.0138 35.72 16.4928 36.1182 16.4928 36.7484C16.4928 37.278 16.8845 37.5796 17.5691 37.6762L17.8961 37.711C18.2536 37.7767 18.4514 37.8772 18.4514 38.0435C18.4514 38.2754 18.189 38.4417 17.7326 38.4417C17.2762 38.4417 16.9149 38.2754 16.6868 38.1092L16.3597 38.6388C16.7172 38.9056 17.2078 39.037 17.6984 39.037C18.6111 39.037 19.1359 38.604 19.1359 38.0087C19.1359 37.4442 18.71 37.1466 18.0597 37.0461L17.7326 37.0113C17.4398 36.9765 17.2116 36.9107 17.2116 36.7136C17.2116 36.4816 17.4398 36.3502 17.801 36.3502C18.1928 36.3502 18.5845 36.5164 18.7822 36.6169L19.0713 36.0525ZM37.284 35.72C36.8923 35.72 36.6299 35.921 36.4664 36.1839V35.7857H35.7818V38.9713H36.4664V37.1775C36.4664 36.6479 36.6946 36.3463 37.1205 36.3463C37.2498 36.3463 37.4133 36.3811 37.5464 36.412L37.7442 35.7548C37.6111 35.72 37.4171 35.72 37.284 35.72ZM28.537 37.3824C28.537 38.345 29.1912 39.0409 30.2028 39.0409C30.6591 39.0409 30.9862 38.9404 31.3133 38.6775L30.9862 38.1131C30.7238 38.3141 30.4652 38.4107 30.1685 38.4107C29.6133 38.4107 29.2216 38.0125 29.2216 37.3824C29.2216 36.7832 29.6133 36.385 30.1685 36.354C30.4614 36.354 30.7238 36.4546 30.9862 36.6517L31.3133 36.0873C30.9862 35.8205 30.6591 35.7239 30.2028 35.7239C29.1912 35.72 28.537 36.4198 28.537 37.3824ZM34.8691 37.3824V35.7896H34.1846V36.1878C33.9564 35.8901 33.6293 35.7239 33.2034 35.7239C32.3211 35.7239 31.6365 36.4198 31.6365 37.3824C31.6365 38.345 32.3211 39.0409 33.2034 39.0409C33.6597 39.0409 33.9868 38.8747 34.1846 38.577V38.9752H34.8691V37.3824ZM32.3553 37.3824C32.3553 36.818 32.7128 36.354 33.3022 36.354C33.8575 36.354 34.2492 36.787 34.2492 37.3824C34.2492 37.9468 33.8575 38.4107 33.3022 38.4107C32.7166 38.3759 32.3553 37.943 32.3553 37.3824ZM24.1635 35.72C23.2508 35.72 22.5967 36.385 22.5967 37.3785C22.5967 38.3759 23.2508 39.037 24.1978 39.037C24.6541 39.037 25.1105 38.9056 25.4718 38.604L25.1447 38.1053C24.8823 38.3064 24.5553 38.4378 24.232 38.4378C23.8061 38.4378 23.3839 38.2368 23.285 37.6762H25.6011C25.6011 37.5757 25.6011 37.51 25.6011 37.4095C25.6315 36.385 25.042 35.72 24.1635 35.72ZM24.1635 36.3192C24.5895 36.3192 24.8823 36.586 24.947 37.0808H23.3155C23.3801 36.6517 23.6729 36.3192 24.1635 36.3192ZM41.1707 37.3824V34.5293H40.4862V36.1878C40.258 35.8901 39.931 35.7239 39.505 35.7239C38.6227 35.7239 37.9382 36.4198 37.9382 37.3824C37.9382 38.345 38.6227 39.0409 39.505 39.0409C39.9614 39.0409 40.2884 38.8747 40.4862 38.577V38.9752H41.1707V37.3824ZM38.6569 37.3824C38.6569 36.818 39.0144 36.354 39.6039 36.354C40.1591 36.354 40.5508 36.787 40.5508 37.3824C40.5508 37.9468 40.1591 38.4107 39.6039 38.4107C39.0144 38.3759 38.6569 37.943 38.6569 37.3824ZM15.7398 37.3824V35.7896H15.0552V36.1878C14.8271 35.8901 14.5 35.7239 14.0741 35.7239C13.1918 35.7239 12.5072 36.4198 12.5072 37.3824C12.5072 38.345 13.1918 39.0409 14.0741 39.0409C14.5304 39.0409 14.8575 38.8747 15.0552 38.577V38.9752H15.7398V37.3824ZM13.1956 37.3824C13.1956 36.818 13.553 36.354 14.1425 36.354C14.6978 36.354 15.0895 36.787 15.0895 37.3824C15.0895 37.9468 14.6978 38.4107 14.1425 38.4107C13.553 38.3759 13.1956 37.943 13.1956 37.3824Z" fill="#1382AB"/>
<path d="M29.1264 11.5967H18.843V30.3776H29.1264V11.5967Z" fill="#FF5A00"/>
<path d="M19.5276 20.9869C19.5276 17.1712 21.2922 13.7846 24 11.5964C22.0072 10.0036 19.4934 9.04102 16.7514 9.04102C10.2558 9.04102 5 14.3838 5 20.9869C5 27.59 10.2558 32.9328 16.7514 32.9328C19.4934 32.9328 22.0072 31.9701 24 30.3774C21.2884 28.2201 19.5276 24.8026 19.5276 20.9869Z" fill="#EB001B"/>
<path d="M43 20.9869C43 27.59 37.7442 32.9328 31.2486 32.9328C28.5066 32.9328 25.9928 31.9701 24 30.3774C26.742 28.1853 28.4724 24.8026 28.4724 20.9869C28.4724 17.1712 26.7078 13.7846 24 11.5964C25.989 10.0036 28.5028 9.04102 31.2448 9.04102C37.7442 9.04102 43 14.4186 43 20.9869Z" fill="#F79E1B"/>
</g>
<defs>
<clipPath id="clip0_871_6294">
<rect width="38" height="30" fill="white" transform="translate(5 9.04102)"/>
</clipPath>
</defs>
</svg>
