<svg width="48" height="49" viewBox="0 0 48 49" fill="none" xmlns="http://www.w3.org/2000/svg">
<path d="M33.5354 28.3607C34.097 28.5763 34.3131 29.416 34.356 29.7823C34.4426 30.4506 34.2486 30.7091 34.0326 30.7091C33.8165 30.7091 33.5139 30.4506 33.1905 29.9337C32.8664 29.416 32.7369 28.8348 32.91 28.5328C33.0174 28.3386 33.2542 28.2528 33.5354 28.3607ZM30.2542 30.7955C30.5998 30.7955 30.9883 30.9462 31.3338 31.2475C32.0028 31.808 32.1974 32.4542 31.8518 32.9283C31.6572 33.1654 31.3338 33.316 30.9668 33.316C30.5998 33.316 30.2112 33.1868 29.9522 32.9497C29.3477 32.4328 29.1752 31.5703 29.5631 31.0968C29.7147 30.9026 29.9522 30.7955 30.2542 30.7955ZM22.6988 37.0218C14.4945 37.0218 7.84558 30.3857 7.84558 22.1986C7.84558 14.0115 14.4952 7.37598 22.6981 7.37598C30.9017 7.37598 37.5513 14.0122 37.5513 22.1986C37.5513 24.9776 36.7743 27.5852 35.4578 29.8044C35.4142 29.8687 35.3061 29.8473 35.2847 29.7609C34.7666 26.12 32.543 24.1158 29.3047 23.5131C29.0236 23.4696 28.9806 23.2975 29.3477 23.2546C30.3407 23.1682 31.7438 23.1897 32.4779 23.3189C32.5208 22.9526 32.543 22.5649 32.543 22.1771C32.543 16.7691 28.1385 12.3735 22.7196 12.3735C17.3013 12.3735 12.8968 16.7691 12.8968 22.1771C12.8968 27.5852 17.3013 31.9808 22.7202 31.9808H23.1732C23.0193 31.106 22.9541 30.2181 22.9786 29.3303C23.0007 28.7269 23.1302 28.6406 23.3892 29.1147C24.7493 31.4631 26.6925 33.5745 30.4917 34.4149C33.6005 35.1046 36.7092 35.9015 40.0554 40.1457C40.3574 40.512 39.9045 40.8998 39.5589 40.5984C36.1482 37.5817 33.0395 36.5906 30.2112 36.5906C27.0374 36.6127 24.8795 37.0218 22.6988 37.0218Z" fill="#FF8C00"/>
</svg>
