<svg width="48" height="49" viewBox="0 0 48 49" fill="none" xmlns="http://www.w3.org/2000/svg">
<path d="M35.4743 15.1748C36.163 16.0654 36.7462 17.0329 37.2118 18.0579L24.0037 27.7948L18.4836 24.3344V20.1713L24.0037 23.6317L35.4743 15.1748Z" fill="#21A038"/>
<path d="M12.8498 24.0411C12.8498 23.8543 12.8544 23.6687 12.8635 23.4842L9.51822 23.3203C9.50683 23.5594 9.5 23.8009 9.5 24.0445C9.49858 25.9482 9.87302 27.8334 10.6018 29.592C11.3307 31.3506 12.3995 32.948 13.7471 34.2926L16.12 31.9207C15.0827 30.8876 14.2598 29.6595 13.6986 28.3073C13.1374 26.955 12.8489 25.5052 12.8498 24.0411Z" fill="url(#paint0_linear_871_6301)"/>
<path d="M24.0003 12.8897C24.187 12.8897 24.3726 12.8965 24.557 12.9056L24.7244 9.55908C24.4846 9.5477 24.2432 9.542 24.0003 9.542C22.0958 9.53968 20.2097 9.91359 18.4501 10.6423C16.6905 11.3709 15.0922 12.44 13.7469 13.7881L16.1198 16.1611C17.153 15.1234 18.3811 14.3002 19.7335 13.7388C21.086 13.1773 22.536 12.8888 24.0003 12.8897Z" fill="url(#paint1_linear_871_6301)"/>
<path d="M24.0003 35.1921C23.8136 35.1921 23.628 35.1921 23.4424 35.1773L23.275 38.5227C23.5156 38.5349 23.7574 38.541 24.0003 38.541C25.904 38.543 27.7893 38.1688 29.5479 37.4399C31.3065 36.711 32.9038 35.6418 34.248 34.2937L31.8797 31.9219C30.8463 32.959 29.6183 33.7818 28.2662 34.343C26.914 34.9042 25.4643 35.1928 24.0003 35.1921Z" fill="url(#paint2_linear_871_6301)"/>
<path d="M30.2857 14.8359L33.1049 12.7578C30.5281 10.6711 27.3116 9.53522 23.9958 9.54104V12.8899C26.2411 12.8871 28.4343 13.5657 30.2857 14.8359Z" fill="url(#paint3_linear_871_6301)"/>
<path d="M38.5 24.0408C38.5018 23.1697 38.4256 22.3 38.2722 21.4424L35.1513 23.7425C35.1513 23.8416 35.1513 23.9407 35.1513 24.0408C35.1521 25.5989 34.8255 27.1397 34.1927 28.5634C33.5599 29.9871 32.635 31.262 31.478 32.3053L33.7291 34.7934C35.2333 33.4354 36.4353 31.7765 37.2572 29.9242C38.0791 28.0718 38.5025 26.0674 38.5 24.0408Z" fill="#21A038"/>
<path d="M24.0004 35.1919C22.4423 35.1925 20.9014 34.8658 19.4776 34.233C18.0538 33.6002 16.7788 32.6754 15.735 31.5186L13.2483 33.7686C14.6061 35.2731 16.2649 36.4753 18.1172 37.2974C19.9694 38.1195 21.9738 38.5431 24.0004 38.5407V35.1919Z" fill="url(#paint4_linear_871_6301)"/>
<path d="M16.5231 15.7761L14.2731 13.2881C12.7685 14.6458 11.5661 16.3047 10.7438 18.157C9.92151 20.0094 9.49776 22.0139 9.50001 24.0406H12.8499C12.8492 22.4826 13.1758 20.9418 13.8086 19.5181C14.4413 18.0944 15.3661 16.8195 16.5231 15.7761Z" fill="url(#paint5_linear_871_6301)"/>
<defs>
<linearGradient id="paint0_linear_871_6301" x1="14.4246" y1="33.8747" x2="10.7647" y2="23.2954" gradientUnits="userSpaceOnUse">
<stop offset="0.14" stop-color="#F1E813"/>
<stop offset="0.3" stop-color="#E6E418"/>
<stop offset="0.58" stop-color="#C9DA26"/>
<stop offset="0.89" stop-color="#A2CC39"/>
</linearGradient>
<linearGradient id="paint1_linear_871_6301" x1="14.7034" y1="14.3802" x2="24.1302" y2="10.788" gradientUnits="userSpaceOnUse">
<stop offset="0.06" stop-color="#0FA7DF"/>
<stop offset="0.54" stop-color="#0098F8"/>
<stop offset="0.92" stop-color="#0290EA"/>
</linearGradient>
<linearGradient id="paint2_linear_871_6301" x1="23.0542" y1="36.5198" x2="33.714" y2="34.1117" gradientUnits="userSpaceOnUse">
<stop offset="0.12" stop-color="#A2CC39"/>
<stop offset="0.28" stop-color="#86C239"/>
<stop offset="0.87" stop-color="#219F38"/>
</linearGradient>
<linearGradient id="paint3_linear_871_6301" x1="23.2991" y1="10.6626" x2="32.4127" y2="13.4749" gradientUnits="userSpaceOnUse">
<stop offset="0.06" stop-color="#0290EA"/>
<stop offset="0.79" stop-color="#0C89CA"/>
</linearGradient>
<linearGradient id="paint4_linear_871_6301" x1="14.0886" y1="33.3609" x2="24.0085" y2="37.0682" gradientUnits="userSpaceOnUse">
<stop offset="0.13" stop-color="#F1E813"/>
<stop offset="0.3" stop-color="#EAE616"/>
<stop offset="0.53" stop-color="#D8DF1F"/>
<stop offset="0.8" stop-color="#BAD52D"/>
<stop offset="0.98" stop-color="#A2CC39"/>
</linearGradient>
<linearGradient id="paint5_linear_871_6301" x1="10.7479" y1="24.4459" x2="14.73" y2="14.0876" gradientUnits="userSpaceOnUse">
<stop offset="0.07" stop-color="#A2CC39"/>
<stop offset="0.26" stop-color="#81C45E"/>
<stop offset="0.92" stop-color="#0FA7DF"/>
</linearGradient>
</defs>
</svg>
