<svg width="48" height="49" viewBox="0 0 48 49" fill="none" xmlns="http://www.w3.org/2000/svg">
<path d="M30.9545 16.5645C27.6916 16.5645 24.7757 18.263 24.7757 21.4012C24.7757 25.0001 29.9471 25.2487 29.9471 27.0566C29.9471 27.8179 29.0784 28.4994 27.5948 28.4994C25.4893 28.4994 23.9156 27.5472 23.9156 27.5472L23.2422 30.7139C23.2422 30.7139 25.0551 31.5183 27.4619 31.5183C31.0293 31.5183 33.8365 29.7363 33.8365 26.5445C33.8365 22.7416 28.6435 22.5004 28.6435 20.8223C28.6435 20.2259 29.3566 19.5725 30.8359 19.5725C32.5051 19.5725 33.867 20.265 33.867 20.265L34.526 17.2065C34.526 17.2065 33.0442 16.5645 30.9545 16.5645ZM1.10196 16.7953L1.02295 17.257C1.02295 17.257 2.39566 17.5093 3.63201 18.0126C5.22392 18.5897 5.33732 18.9257 5.60542 19.9693L8.52693 31.2802H12.4432L18.4766 16.7953H14.5693L10.6925 26.6437L9.11051 18.2957C8.96543 17.3403 8.23056 16.7953 7.33103 16.7953H1.10196ZM20.0477 16.7953L16.9826 31.2802H20.7085L23.7629 16.7953H20.0477ZM40.8287 16.7953C39.9302 16.7953 39.4542 17.2784 39.1049 18.1226L33.6461 31.2802H37.5534L38.3094 29.0873H43.0696L43.5293 31.2802H46.9769L43.9693 16.7953H40.8287ZM41.3368 20.7087L42.495 26.1441H39.3922L41.3368 20.7087Z" fill="#1382AB"/>
</svg>
