<svg width="48" height="49" viewBox="0 0 48 49" fill="none" xmlns="http://www.w3.org/2000/svg">
<path d="M38.2084 22.2528H37.4471V17.6786C37.4471 15.8082 35.9245 14.2922 34.0607 14.2922H33.3585L33.3651 12.5924C33.3651 11.3324 32.3413 10.3086 31.0812 10.3086H10.776C9.26005 10.3086 8.01969 11.5293 8 13.0453C8 13.0584 8 13.0715 8 13.0846V35.4899C8 36.7499 9.02379 37.7737 10.2838 37.7737H34.0673C35.9377 37.7737 37.4536 36.2512 37.4536 34.3874V29.8065H38.2149C39.1993 29.8065 40 29.0059 40 28.0215V24.0379C39.9934 23.0535 39.1928 22.2528 38.2084 22.2528ZM10.776 11.8837H31.0812C31.4684 11.8837 31.79 12.1987 31.79 12.5859L31.7834 14.2922H10.776C10.1132 14.2922 9.57506 13.754 9.57506 13.0912C9.57506 12.4284 10.1132 11.8837 10.776 11.8837ZM35.872 34.3808C35.872 35.3783 35.0582 36.1921 34.0607 36.1921H10.2773C9.89007 36.1921 9.5685 35.8771 9.5685 35.4833V15.5916C9.93601 15.7688 10.3429 15.8672 10.776 15.8672H34.0607C35.0582 15.8672 35.872 16.681 35.872 17.6786V22.2528H30.4971C29.5127 22.2528 28.7121 23.0535 28.7121 24.0379V28.0215C28.7121 29.0059 29.5127 29.8065 30.4971 29.8065H35.872V34.3808ZM38.4184 28.0215C38.4184 28.1396 38.3265 28.2315 38.2084 28.2315H30.5037C30.3856 28.2315 30.2937 28.1396 30.2937 28.0215V24.0379C30.2937 23.9263 30.3856 23.8279 30.5037 23.8279H38.2084C38.3199 23.8279 38.4184 23.9198 38.4184 24.0379V28.0215Z" fill="#1382AB"/>
</svg>
